Coordinates
version=1
nRows=30
nColumns=19
inDegrees=yes

Units are S.I. units (second, meters, Newtons, ...)
If the header above contains a line with 'inDegrees', this indicates whether rotational values are in degrees (yes) or radians (no).

endheader
time	pelvis_obliquity	pelvis_rotation	pelvis_tilt	pelvis_to_ground_tx	pelvis_to_ground_ty	pelvis_to_ground_tz	left_hip_abduction	left_hip_rotation	left_hip_flexion	left_knee_flexion	left_ankle_flexion	left_subtalar_angle	right_hip_abduction	right_hip_rotation	right_hip_flexion	right_knee_flexion	right_ankle_flexion	right_subtalar_angle
      3.55000000	     90.15017378	     20.80407265	    -11.25046463	     -0.85040185	     -0.56346193	      0.57298708	     -3.77728253	    -24.99618329	      3.32523698	    -21.46192113	    -20.41342148	     -6.95411099	     -3.64962400	      5.71261185	     42.14999467	    -35.15706403	     -0.84341738	    -16.02420857
      3.56000000	     88.87650778	     19.79298241	    -11.40028649	     -0.83964438	     -0.56384165	      0.57430508	     -2.54642715	    -23.97950515	      5.50826752	    -24.36908984	    -20.60856178	     -7.08787949	     -2.22526560	      6.49027006	     41.11776963	    -33.83451927	     -0.54545964	    -15.60767086
      3.57000000	     87.72664304	     18.83470773	    -11.69997993	     -0.82906790	     -0.56438778	      0.57606048	     -1.31639845	    -22.90568805	      7.90297355	    -27.12246722	    -20.69052933	     -7.25971075	     -0.96620099	      7.31243029	     40.03288614	    -32.18682115	     -0.32841074	    -15.11856897
      3.58000000	     86.73383922	     17.94928154	    -12.05197493	     -0.81867753	     -0.56505207	      0.57818112	     -0.17055140	    -21.76447680	     10.38981930	    -29.69657318	    -20.64386481	     -7.49785274	      0.12262732	      8.14784952	     38.82334567	    -30.27945264	     -0.22036858	    -14.59135222
      3.59000000	     85.89917633	     17.14706169	    -12.39263097	     -0.80843726	     -0.56579332	      0.58060489	      0.85850325	    -20.54619505	     12.89101637	    -32.06170307	    -20.52129009	     -7.81773939	      1.07347592	      8.95313345	     37.43918673	    -28.13789908	     -0.20873456	    -14.12983770
      3.60000000	     85.29066459	     16.43525144	    -12.87295797	     -0.79840274	     -0.56654968	      0.58327438	      1.71505656	    -19.41647744	     15.54157523	    -34.21776490	    -19.99588387	     -8.39029742	      1.76706565	      9.85143199	     36.04879105	    -25.79495833	     -0.58108055	    -13.54388873
      3.61000000	     84.81989929	     15.75717864	    -13.14483214	     -0.78851358	     -0.56728040	      0.58600736	      2.36954668	    -18.09544170	     18.01486860	    -36.18922149	    -19.73162370	     -8.86677283	      2.38040064	     10.73614196	     34.38104928	    -23.39803166	     -0.76644050	    -13.25460444
      3.62000000	     84.54280601	     15.20528225	    -13.51616254	     -0.77878968	     -0.56794930	      0.58883291	      2.85769881	    -16.96567116	     20.59668039	    -37.93400821	    -19.03251018	     -9.75152866	      2.80630075	     11.63210792	     32.70205149	    -20.84692221	     -1.56033083	    -13.13195253
      3.63000000	     84.39019611	     14.64814941	    -13.73193282	     -0.76923702	     -0.56849510	      0.59152831	      3.13651049	    -15.67183910	     23.06667241	    -39.52491279	    -18.48830276	    -10.57666646	      3.15461587	     12.50491135	     30.87501267	    -18.37135911	     -2.35767540	    -13.26271144
      3.64000000	     84.37276710	     14.14075246	    -13.91020853	     -0.75983157	     -0.56888672	      0.59409775	      3.23229079	    -14.47038512	     25.50451712	    -40.91030029	    -17.96790215	    -11.30298141	      3.38797664	     13.38792030	     28.98817460	    -15.90447686	     -3.09292858	    -13.39588913
      3.65000000	     84.45033848	     13.62647152	    -13.98666872	     -0.75055848	     -0.56908354	      0.59643714	      3.15323189	    -13.27234443	     27.84470689	    -42.10267317	    -17.66793661	    -11.72443081	      3.56021436	     14.23200773	     27.03091223	    -13.54891174	     -3.35766032	    -13.26777893
      3.66000000	     84.58445511	     13.17552490	    -14.03009129	     -0.74141904	     -0.56911376	      0.59849495	      2.99746754	    -12.23955898	     30.17656809	    -43.10936486	    -16.89265575	    -12.58146256	      3.70563996	     14.97139460	     25.07296273	    -11.27821236	     -4.55307160	    -13.64827481
      3.67000000	     84.73779940	     12.67943199	    -13.96943726	     -0.73237954	     -0.56894162	      0.60021078	      2.75675961	    -11.18729571	     32.40250253	    -43.91154249	    -16.49799107	    -13.06746066	      3.85050188	     15.65581898	     23.09750220	     -9.20149680	     -5.25858240	    -13.84197367
      3.68000000	     84.88361297	     12.14265751	    -13.83337814	     -0.72340525	     -0.56857288	      0.60156012	      2.48620121	    -10.16693814	     34.53273809	    -44.48295452	    -16.29983534	    -13.32288041	      4.02053163	     16.20503166	     21.15250047	     -7.35176618	     -5.44202698	    -13.67919480
      3.69000000	     84.99579039	     11.61222021	    -13.63013662	     -0.71445535	     -0.56805444	      0.60254760	      2.26121413	     -9.27908969	     36.55340560	    -44.78295605	    -16.00059119	    -13.63182484	      4.23554692	     16.69116843	     19.20797403	     -5.64547304	     -5.83334121	    -13.57180403
      3.70000000	     85.05535687	     11.06702488	    -13.37640994	     -0.70548475	     -0.56740363	      0.60315945	      2.12121607	     -8.50923675	     38.44729300	    -44.78224953	    -15.74163172	    -13.90088860	      4.50797599	     17.08291912	     17.30275469	     -4.12636034	     -6.26789398	    -13.50701185
      3.71000000	     85.05668199	     10.50911156	    -13.08183774	     -0.69644131	     -0.56664481	      0.60340586	      2.09908854	     -7.86466399	     40.18194534	    -44.43791268	    -15.55656459	    -14.11357188	      4.83901860	     17.40664049	     15.44049129	     -2.79235672	     -6.68924825	    -13.46206944
      3.72000000	     84.98801345	      9.93056368	    -12.76744231	     -0.68728526	     -0.56580112	      0.60329637	      2.22948433	     -7.34698595	     41.73740141	    -43.72671599	    -15.47296425	    -14.26358493	      5.23246437	     17.66846086	     13.64996725	     -1.65902691	     -7.01017925	    -13.39521945
      3.73000000	     84.85683312	      9.33385167	    -12.41815850	     -0.67794407	     -0.56489981	      0.60285197	      2.52648065	     -6.97137049	     43.03732714	    -42.61680057	    -15.46028871	    -14.38999237	      5.68861189	     17.90289591	     11.89708601	     -0.71260064	     -7.31950439	    -13.33818824
      3.74000000	     84.65191121	      8.76205546	    -12.09188843	     -0.66839924	     -0.56397308	      0.60208544	      3.05217347	     -6.83648269	     44.10775642	    -41.11780245	    -15.52686451	    -14.47414601	      6.21022389	     18.08654697	     10.25289933	      0.03485042	     -7.48383712	    -13.24611470
      3.75000000	     84.42122736	      8.12182485	    -11.69332868	     -0.65855189	     -0.56300087	      0.60103295	      3.69952375	     -6.77479111	     44.77761016	    -39.23062842	    -15.66340225	    -14.57610353	      6.75730311	     18.26488283	      8.61483077	      0.54371158	     -7.66282637	    -13.16143724
      3.76000000	     84.08343193	      7.47403123	    -11.25544898	     -0.64838695	     -0.56204603	      0.59965744	      4.56404004	     -6.80763892	     45.13007904	    -37.10106451	    -15.91517502	    -14.75886744	      7.41480530	     18.42183800	      7.02813792	      0.82487402	     -7.91028012	    -13.11352225
      3.77000000	     83.74478937	      6.84616106	    -10.83125746	     -0.63788018	     -0.56108380	      0.59803937	      5.58181308	     -7.11161219	     45.14346664	    -34.72585189	    -16.21842829	    -14.98259693	      8.05784970	     18.52477346	      5.54715821	      0.86864657	     -8.10078125	    -13.05686738
      3.78000000	     83.37996564	      6.22104288	    -10.38394903	     -0.62701118	     -0.56013387	      0.59618548	      6.72189656	     -7.58365889	     44.82402667	    -32.26625185	    -16.57731419	    -15.29368835	      8.71255326	     18.58624803	      4.16257092	      0.63211483	     -8.29333612	    -12.97374897
      3.79000000	     83.02661814	      5.62271238	     -9.92734510	     -0.61579101	     -0.55918654	      0.59413674	      7.91336813	     -8.23559513	     44.22126150	    -29.85543132	    -16.93150993	    -15.66278735	      9.32990767	     18.58105765	      2.90913122	      0.09944426	     -8.49845003	    -12.85073968
      3.80000000	     82.70729436	      5.04882365	     -9.47619163	     -0.60425202	     -0.55824489	      0.59194704	      9.07492893	     -8.99827766	     43.40388889	    -27.64037708	    -17.29866864	    -16.17327707	      9.86729605	     18.50120890	      1.83286186	     -0.75359703	     -8.78144337	    -12.65921139
      3.81000000	     82.46512709	      4.53852837	     -9.09079555	     -0.59245850	     -0.55731121	      0.58969263	     10.12328754	     -9.85521766	     42.49233044	    -25.73270133	    -17.50203835	    -16.58079200	     10.26193555	     18.34443648	      1.03739616	     -1.96055469	     -9.09376572	    -12.45222881
      3.82000000	     82.34747021	      4.08681894	     -8.75772281	     -0.58046870	     -0.55634463	      0.58745314	     10.94568780	    -10.72912661	     41.51254695	    -24.21382175	    -17.58585826	    -16.98146960	     10.45636221	     18.11505473	      0.52303184	     -3.51177357	     -9.51985195	    -12.17491848
      3.83000000	     82.41232985	      3.68618214	     -8.54863607	     -0.56836852	     -0.55531425	      0.58533238	     11.45650908	    -11.54599576	     40.55461506	    -23.08888843	    -17.57814797	    -17.60192506	     10.36315153	     17.84505419	      0.39228939	     -5.41936859	    -10.13226284	    -11.55543212
      3.84000000	     82.63185491	      3.43503067	     -8.36745772	     -0.55624085	     -0.55426920	      0.58335259	     11.65839672	    -12.33235379	     39.58710735	    -22.37570535	    -17.35175354	    -17.65058945	     10.05041526	     17.39097684	      0.57811533	     -7.68659214	    -10.66673787	    -11.40371487
